 http://img401.imageshack.us/img401/945/intime.jpg


Verenigde Staten
Sciencefiction / Thriller
109 minuten

geregisseerd door Andrew Niccol
met Amanda Seyfried, Justin Timberlake en Olivia Wilde

Welkom in een wereld waar tijd het ultieme betaalmiddel is geworden. Het verouderingsproces stopt op de leeftijd van 25 jaar, maar er zit een addertje onder het gras: je bent genetisch gemanipuleerd om nog één jaar te leven, tenzij je je nakende dood kan afkopen. De rijken "verdienen" tientallen jaren per keer (en blijven 25 jaar), waardoor ze nagenoeg onsterfelijk worden, terwijl de rest genoeg uren bij elkaar smeekt, leent of steelt om de dag door te komen. Wanneer een jonge man (Timberlake) in het bezit komt van een fortuin aan tijd, wordt hij valselijk beschuldigd van moord. Hij wordt gedwongen op de vlucht te slaan met een mooie gijzelaar (Seyfried). De liefde van het duo, dat van minuut tot minuut leeft, wordt een sterk wapen in hun oorlog tegen het systeem.



Vertaald door Simply ReleaseS Toppers
Markow87






Screenshots:
 
http://img804.imageshack.us/img804/5627/screenshot1wl.jpg
 
http://img97.imageshack.us/img97/7/screenshot2sm.jpg
 
http://img715.imageshack.us/img715/7563/screenshot3xn.jpg
 
http://img542.imageshack.us/img542/5058/screenshot4t.jpg



INFO;


Format                                   : AVI
Format/Info                              : Audio Video Interleave
File size                                : 714 MiB
Duration                                 : 1h 41mn
Overall bit rate mode                    : Variable
Overall bit rate                         : 981 Kbps
Writing application                      : VirtualDubMod 1.5.4.1 (build 2178/release)
Writing library                          : VirtualDubMod build 2178/release

Video
ID                                       : 0
Format                                   : MPEG-4 Visual
Format profile                           : Advanced Simple@L5
Format settings, BVOP                    : 1
Format settings, QPel                    : No
Format settings, GMC                     : No warppoints
Format settings, Matrix                  : Custom
Codec ID                                 : XVID
Codec ID/Hint                            : XviD
Duration                                 : 1h 41mn
Bit rate                                 : 851 Kbps
Width                                    : 688 pixels
Height                                   : 288 pixels
Display aspect ratio                     : 2.40:1
Frame rate                               : 25.000 fps
Color space                              : YUV
Chroma subsampling                       : 4:2:0
Bit depth                                : 8 bits
Scan type                                : Progressive
Compression mode                         : Lossy
Bits/(Pixel*Frame)                       : 0.172
Stream size                              : 620 MiB (87%)
Writing library                          : XviD 64

Audio
ID                                       : 1
Format                                   : MPEG Audio
Format version                           : Version 1
Format profile                           : Layer 3
Mode                                     : Joint stereo
Mode extension                           : MS Stereo
Codec ID                                 : 55
Codec ID/Hint                            : MP3
Duration                                 : 1h 41mn
Bit rate mode                            : Variable
Bit rate                                 : 116 Kbps
Nominal bit rate                         : 128 Kbps
Channel(s)                               : 2 channels
Sampling rate                            : 48.0 KHz
Compression mode                         : Lossy
Stream size                              : 84.7 MiB (12%)
Alignment                                : Aligned on interleaves
Interleave, duration                     : 24 ms (0.60 video frame)
Interleave, preload duration             : 496 ms



 
http://www.imdb.com/title/tt1637688/ 
http://www.moviemeter.nl/film/75622




Deze film wordt u aangeboden door het DutchReleaseTeam.
Voor de reviews van de nieuwste films, muziek, series, games etc
ga dan eens naar http://www.hetmultimediacafe.be

DutchReleaseteam = Hardcoded Dutch Subs